<mxfile host="app.diagrams.net" modified="2021-08-17T14:53:00.795Z" agent="5.0 (X11; Linux x86_64) AppleWebKit/537.36 (KHTML, like Gecko) Chrome/92.0.4515.131 Safari/537.36" etag="mgq_kysTp44BsNvNFVE3" version="14.9.6" type="github">
  <diagram id="WmTiZPlt9Fav-yDZu9E8" name="Page-1">
    <mxGraphModel dx="1845" dy="1262" grid="1" gridSize="10" guides="1" tooltips="1" connect="1" arrows="1" fold="1" page="0" pageScale="1" pageWidth="827" pageHeight="1169" math="0" shadow="0">
      <root>
        <mxCell id="0" />
        <mxCell id="1" parent="0" />
        <mxCell id="lRcayT5BIOxvQGT9DbQC-58" style="edgeStyle=orthogonalEdgeStyle;rounded=0;orthogonalLoop=1;jettySize=auto;html=1;strokeWidth=2;" parent="1" source="lRcayT5BIOxvQGT9DbQC-1" edge="1">
          <mxGeometry relative="1" as="geometry">
            <mxPoint x="15" y="-130" as="targetPoint" />
          </mxGeometry>
        </mxCell>
        <mxCell id="lRcayT5BIOxvQGT9DbQC-1" value="" style="rounded=0;whiteSpace=wrap;html=1;strokeWidth=3;strokeColor=#660033;" parent="1" vertex="1">
          <mxGeometry x="-70" y="-100" width="170" height="670" as="geometry" />
        </mxCell>
        <mxCell id="lRcayT5BIOxvQGT9DbQC-2" value="&lt;b&gt;&lt;font style=&quot;font-size: 14px&quot;&gt;node 1&lt;/font&gt;&lt;/b&gt;" style="text;html=1;strokeColor=none;fillColor=none;align=center;verticalAlign=middle;whiteSpace=wrap;rounded=0;" parent="1" vertex="1">
          <mxGeometry x="-30" y="570" width="90" height="20" as="geometry" />
        </mxCell>
        <mxCell id="lRcayT5BIOxvQGT9DbQC-9" style="edgeStyle=orthogonalEdgeStyle;rounded=0;orthogonalLoop=1;jettySize=auto;html=1;" parent="1" source="lRcayT5BIOxvQGT9DbQC-5" target="lRcayT5BIOxvQGT9DbQC-6" edge="1">
          <mxGeometry relative="1" as="geometry" />
        </mxCell>
        <mxCell id="lRcayT5BIOxvQGT9DbQC-5" value="" style="pointerEvents=1;shadow=0;dashed=0;html=1;strokeColor=none;fillColor=#434445;aspect=fixed;labelPosition=center;verticalLabelPosition=bottom;verticalAlign=top;align=center;outlineConnect=0;shape=mxgraph.vvd.disk;strokeWidth=5;" parent="1" vertex="1">
          <mxGeometry x="-9.5" y="470" width="49" height="70" as="geometry" />
        </mxCell>
        <mxCell id="lRcayT5BIOxvQGT9DbQC-6" value="" style="pointerEvents=1;shadow=0;dashed=0;html=1;strokeColor=none;fillColor=#434445;aspect=fixed;labelPosition=center;verticalLabelPosition=bottom;verticalAlign=top;align=center;outlineConnect=0;shape=mxgraph.vvd.folder;strokeWidth=3;" parent="1" vertex="1">
          <mxGeometry x="-24.470000000000027" y="370" width="78.95" height="60" as="geometry" />
        </mxCell>
        <mxCell id="lRcayT5BIOxvQGT9DbQC-7" value="&lt;span style=&quot;font-size: 14px&quot;&gt;&lt;b&gt;SSD | xfs&lt;/b&gt;&lt;/span&gt;" style="text;html=1;strokeColor=none;fillColor=none;align=center;verticalAlign=middle;whiteSpace=wrap;rounded=0;" parent="1" vertex="1">
          <mxGeometry x="-30" y="550" width="90" height="20" as="geometry" />
        </mxCell>
        <mxCell id="lRcayT5BIOxvQGT9DbQC-12" style="edgeStyle=orthogonalEdgeStyle;rounded=0;orthogonalLoop=1;jettySize=auto;html=1;" parent="1" source="lRcayT5BIOxvQGT9DbQC-8" target="lRcayT5BIOxvQGT9DbQC-10" edge="1">
          <mxGeometry relative="1" as="geometry" />
        </mxCell>
        <mxCell id="lRcayT5BIOxvQGT9DbQC-8" value="&lt;b&gt;&lt;font style=&quot;font-size: 14px&quot;&gt;fstab | /export&lt;/font&gt;&lt;/b&gt;" style="text;html=1;strokeColor=none;fillColor=none;align=center;verticalAlign=middle;whiteSpace=wrap;rounded=0;" parent="1" vertex="1">
          <mxGeometry x="-50" y="340" width="130" height="20" as="geometry" />
        </mxCell>
        <mxCell id="lRcayT5BIOxvQGT9DbQC-10" value="" style="pointerEvents=1;shadow=0;dashed=0;html=1;strokeColor=none;fillColor=#434445;aspect=fixed;labelPosition=center;verticalLabelPosition=bottom;verticalAlign=top;align=center;outlineConnect=0;shape=mxgraph.vvd.folder;strokeWidth=3;" parent="1" vertex="1">
          <mxGeometry x="-24.470000000000027" y="250" width="78.95" height="60" as="geometry" />
        </mxCell>
        <mxCell id="lRcayT5BIOxvQGT9DbQC-11" value="&lt;b&gt;&lt;font style=&quot;font-size: 14px&quot;&gt;&amp;nbsp;/export/node1&lt;/font&gt;&lt;/b&gt;" style="text;html=1;strokeColor=none;fillColor=none;align=center;verticalAlign=middle;whiteSpace=wrap;rounded=0;" parent="1" vertex="1">
          <mxGeometry x="-50" y="220" width="130" height="20" as="geometry" />
        </mxCell>
        <mxCell id="lRcayT5BIOxvQGT9DbQC-59" style="edgeStyle=orthogonalEdgeStyle;rounded=0;orthogonalLoop=1;jettySize=auto;html=1;strokeWidth=2;" parent="1" source="lRcayT5BIOxvQGT9DbQC-13" edge="1">
          <mxGeometry relative="1" as="geometry">
            <mxPoint x="245" y="-130" as="targetPoint" />
          </mxGeometry>
        </mxCell>
        <mxCell id="lRcayT5BIOxvQGT9DbQC-13" value="" style="rounded=0;whiteSpace=wrap;html=1;strokeWidth=3;strokeColor=#660033;" parent="1" vertex="1">
          <mxGeometry x="160" y="-100" width="170" height="670" as="geometry" />
        </mxCell>
        <mxCell id="lRcayT5BIOxvQGT9DbQC-14" value="&lt;b&gt;&lt;font style=&quot;font-size: 14px&quot;&gt;node 2&lt;/font&gt;&lt;/b&gt;" style="text;html=1;strokeColor=none;fillColor=none;align=center;verticalAlign=middle;whiteSpace=wrap;rounded=0;" parent="1" vertex="1">
          <mxGeometry x="200" y="570" width="90" height="20" as="geometry" />
        </mxCell>
        <mxCell id="lRcayT5BIOxvQGT9DbQC-15" style="edgeStyle=orthogonalEdgeStyle;rounded=0;orthogonalLoop=1;jettySize=auto;html=1;" parent="1" source="lRcayT5BIOxvQGT9DbQC-16" target="lRcayT5BIOxvQGT9DbQC-17" edge="1">
          <mxGeometry relative="1" as="geometry" />
        </mxCell>
        <mxCell id="lRcayT5BIOxvQGT9DbQC-16" value="" style="pointerEvents=1;shadow=0;dashed=0;html=1;strokeColor=none;fillColor=#434445;aspect=fixed;labelPosition=center;verticalLabelPosition=bottom;verticalAlign=top;align=center;outlineConnect=0;shape=mxgraph.vvd.disk;strokeWidth=5;" parent="1" vertex="1">
          <mxGeometry x="220.51" y="470" width="49" height="70" as="geometry" />
        </mxCell>
        <mxCell id="lRcayT5BIOxvQGT9DbQC-17" value="" style="pointerEvents=1;shadow=0;dashed=0;html=1;strokeColor=none;fillColor=#434445;aspect=fixed;labelPosition=center;verticalLabelPosition=bottom;verticalAlign=top;align=center;outlineConnect=0;shape=mxgraph.vvd.folder;strokeWidth=3;" parent="1" vertex="1">
          <mxGeometry x="205.52999999999997" y="370" width="78.95" height="60" as="geometry" />
        </mxCell>
        <mxCell id="lRcayT5BIOxvQGT9DbQC-18" value="&lt;span style=&quot;font-size: 14px&quot;&gt;&lt;b&gt;SSD | xfs&lt;/b&gt;&lt;/span&gt;" style="text;html=1;strokeColor=none;fillColor=none;align=center;verticalAlign=middle;whiteSpace=wrap;rounded=0;" parent="1" vertex="1">
          <mxGeometry x="200" y="550" width="90" height="20" as="geometry" />
        </mxCell>
        <mxCell id="lRcayT5BIOxvQGT9DbQC-19" style="edgeStyle=orthogonalEdgeStyle;rounded=0;orthogonalLoop=1;jettySize=auto;html=1;" parent="1" source="lRcayT5BIOxvQGT9DbQC-20" target="lRcayT5BIOxvQGT9DbQC-21" edge="1">
          <mxGeometry relative="1" as="geometry" />
        </mxCell>
        <mxCell id="lRcayT5BIOxvQGT9DbQC-20" value="&lt;b&gt;&lt;font style=&quot;font-size: 14px&quot;&gt;fstab | /export&lt;/font&gt;&lt;/b&gt;" style="text;html=1;strokeColor=none;fillColor=none;align=center;verticalAlign=middle;whiteSpace=wrap;rounded=0;" parent="1" vertex="1">
          <mxGeometry x="180" y="340" width="130" height="20" as="geometry" />
        </mxCell>
        <mxCell id="lRcayT5BIOxvQGT9DbQC-21" value="" style="pointerEvents=1;shadow=0;dashed=0;html=1;strokeColor=none;fillColor=#434445;aspect=fixed;labelPosition=center;verticalLabelPosition=bottom;verticalAlign=top;align=center;outlineConnect=0;shape=mxgraph.vvd.folder;strokeWidth=3;" parent="1" vertex="1">
          <mxGeometry x="205.52999999999997" y="250" width="78.95" height="60" as="geometry" />
        </mxCell>
        <mxCell id="lRcayT5BIOxvQGT9DbQC-22" value="&lt;b&gt;&lt;font style=&quot;font-size: 14px&quot;&gt;&amp;nbsp;/export/node2&lt;/font&gt;&lt;/b&gt;" style="text;html=1;strokeColor=none;fillColor=none;align=center;verticalAlign=middle;whiteSpace=wrap;rounded=0;" parent="1" vertex="1">
          <mxGeometry x="180" y="220" width="130" height="20" as="geometry" />
        </mxCell>
        <mxCell id="lRcayT5BIOxvQGT9DbQC-60" style="edgeStyle=orthogonalEdgeStyle;rounded=0;orthogonalLoop=1;jettySize=auto;html=1;strokeWidth=2;" parent="1" source="lRcayT5BIOxvQGT9DbQC-23" edge="1">
          <mxGeometry relative="1" as="geometry">
            <mxPoint x="485" y="-130" as="targetPoint" />
          </mxGeometry>
        </mxCell>
        <mxCell id="lRcayT5BIOxvQGT9DbQC-23" value="" style="rounded=0;whiteSpace=wrap;html=1;strokeWidth=3;strokeColor=#660033;" parent="1" vertex="1">
          <mxGeometry x="400" y="-100" width="170" height="670" as="geometry" />
        </mxCell>
        <mxCell id="lRcayT5BIOxvQGT9DbQC-24" value="&lt;b&gt;&lt;font style=&quot;font-size: 14px&quot;&gt;node 3&lt;/font&gt;&lt;/b&gt;" style="text;html=1;strokeColor=none;fillColor=none;align=center;verticalAlign=middle;whiteSpace=wrap;rounded=0;" parent="1" vertex="1">
          <mxGeometry x="440" y="570" width="90" height="20" as="geometry" />
        </mxCell>
        <mxCell id="lRcayT5BIOxvQGT9DbQC-25" style="edgeStyle=orthogonalEdgeStyle;rounded=0;orthogonalLoop=1;jettySize=auto;html=1;" parent="1" source="lRcayT5BIOxvQGT9DbQC-26" target="lRcayT5BIOxvQGT9DbQC-27" edge="1">
          <mxGeometry relative="1" as="geometry" />
        </mxCell>
        <mxCell id="lRcayT5BIOxvQGT9DbQC-26" value="" style="pointerEvents=1;shadow=0;dashed=0;html=1;strokeColor=none;fillColor=#434445;aspect=fixed;labelPosition=center;verticalLabelPosition=bottom;verticalAlign=top;align=center;outlineConnect=0;shape=mxgraph.vvd.disk;strokeWidth=5;" parent="1" vertex="1">
          <mxGeometry x="460.5" y="470" width="49" height="70" as="geometry" />
        </mxCell>
        <mxCell id="lRcayT5BIOxvQGT9DbQC-27" value="" style="pointerEvents=1;shadow=0;dashed=0;html=1;strokeColor=none;fillColor=#434445;aspect=fixed;labelPosition=center;verticalLabelPosition=bottom;verticalAlign=top;align=center;outlineConnect=0;shape=mxgraph.vvd.folder;strokeWidth=3;" parent="1" vertex="1">
          <mxGeometry x="445.53" y="370" width="78.95" height="60" as="geometry" />
        </mxCell>
        <mxCell id="lRcayT5BIOxvQGT9DbQC-28" value="&lt;span style=&quot;font-size: 14px&quot;&gt;&lt;b&gt;SSD | xfs&lt;/b&gt;&lt;/span&gt;" style="text;html=1;strokeColor=none;fillColor=none;align=center;verticalAlign=middle;whiteSpace=wrap;rounded=0;" parent="1" vertex="1">
          <mxGeometry x="440" y="550" width="90" height="20" as="geometry" />
        </mxCell>
        <mxCell id="lRcayT5BIOxvQGT9DbQC-29" style="edgeStyle=orthogonalEdgeStyle;rounded=0;orthogonalLoop=1;jettySize=auto;html=1;" parent="1" source="lRcayT5BIOxvQGT9DbQC-30" target="lRcayT5BIOxvQGT9DbQC-31" edge="1">
          <mxGeometry relative="1" as="geometry" />
        </mxCell>
        <mxCell id="lRcayT5BIOxvQGT9DbQC-30" value="&lt;b&gt;&lt;font style=&quot;font-size: 14px&quot;&gt;fstab | /export&lt;/font&gt;&lt;/b&gt;" style="text;html=1;strokeColor=none;fillColor=none;align=center;verticalAlign=middle;whiteSpace=wrap;rounded=0;" parent="1" vertex="1">
          <mxGeometry x="420" y="340" width="130" height="20" as="geometry" />
        </mxCell>
        <mxCell id="lRcayT5BIOxvQGT9DbQC-31" value="" style="pointerEvents=1;shadow=0;dashed=0;html=1;strokeColor=none;fillColor=#434445;aspect=fixed;labelPosition=center;verticalLabelPosition=bottom;verticalAlign=top;align=center;outlineConnect=0;shape=mxgraph.vvd.folder;strokeWidth=3;" parent="1" vertex="1">
          <mxGeometry x="445.53" y="250" width="78.95" height="60" as="geometry" />
        </mxCell>
        <mxCell id="lRcayT5BIOxvQGT9DbQC-32" value="&lt;b&gt;&lt;font style=&quot;font-size: 14px&quot;&gt;&amp;nbsp;/export/node3&lt;/font&gt;&lt;/b&gt;" style="text;html=1;strokeColor=none;fillColor=none;align=center;verticalAlign=middle;whiteSpace=wrap;rounded=0;" parent="1" vertex="1">
          <mxGeometry x="420" y="220" width="130" height="20" as="geometry" />
        </mxCell>
        <mxCell id="lRcayT5BIOxvQGT9DbQC-33" value="" style="rounded=0;whiteSpace=wrap;html=1;strokeColor=#6c8ebf;strokeWidth=4;dashed=1;fillColor=none;" parent="1" vertex="1">
          <mxGeometry x="-40" y="220" width="590" height="115" as="geometry" />
        </mxCell>
        <mxCell id="lRcayT5BIOxvQGT9DbQC-36" value="" style="aspect=fixed;html=1;points=[];align=center;image;fontSize=12;image=img/lib/mscae/Docker.svg;dashed=1;strokeColor=#660033;strokeWidth=3;fillColor=none;" parent="1" vertex="1">
          <mxGeometry x="-39.879999999999995" y="-80" width="109.76" height="90" as="geometry" />
        </mxCell>
        <mxCell id="lRcayT5BIOxvQGT9DbQC-37" value="" style="aspect=fixed;html=1;points=[];align=center;image;fontSize=12;image=img/lib/mscae/Docker.svg;dashed=1;strokeColor=#660033;strokeWidth=3;fillColor=none;" parent="1" vertex="1">
          <mxGeometry x="190.13" y="-80" width="109.76" height="90" as="geometry" />
        </mxCell>
        <mxCell id="lRcayT5BIOxvQGT9DbQC-38" value="" style="aspect=fixed;html=1;points=[];align=center;image;fontSize=12;image=img/lib/mscae/Docker.svg;dashed=1;strokeColor=#660033;strokeWidth=3;fillColor=none;" parent="1" vertex="1">
          <mxGeometry x="430.25" y="-80" width="109.76" height="90" as="geometry" />
        </mxCell>
        <mxCell id="lRcayT5BIOxvQGT9DbQC-63" style="edgeStyle=orthogonalEdgeStyle;rounded=0;orthogonalLoop=1;jettySize=auto;html=1;strokeWidth=2;" parent="1" source="lRcayT5BIOxvQGT9DbQC-39" target="lRcayT5BIOxvQGT9DbQC-64" edge="1">
          <mxGeometry relative="1" as="geometry">
            <mxPoint x="650" y="117.5" as="targetPoint" />
          </mxGeometry>
        </mxCell>
        <mxCell id="lRcayT5BIOxvQGT9DbQC-39" value="" style="rounded=0;whiteSpace=wrap;html=1;strokeColor=#82b366;strokeWidth=3;fillColor=#d5e8d4;" parent="1" vertex="1">
          <mxGeometry x="-40" y="60" width="590" height="115" as="geometry" />
        </mxCell>
        <mxCell id="lRcayT5BIOxvQGT9DbQC-41" value="" style="rounded=0;whiteSpace=wrap;html=1;strokeColor=#660033;strokeWidth=3;fillColor=none;" parent="1" vertex="1">
          <mxGeometry x="-20" y="-227.5" width="590" height="95" as="geometry" />
        </mxCell>
        <mxCell id="lRcayT5BIOxvQGT9DbQC-45" value="&lt;b&gt;&lt;font style=&quot;font-size: 17px&quot;&gt;Docker swarm&lt;/font&gt;&lt;/b&gt;" style="text;html=1;strokeColor=none;fillColor=none;align=center;verticalAlign=middle;whiteSpace=wrap;rounded=0;" parent="1" vertex="1">
          <mxGeometry x="189.5" y="-187.49" width="130" height="20" as="geometry" />
        </mxCell>
        <mxCell id="lRcayT5BIOxvQGT9DbQC-35" value="&lt;b&gt;&lt;font style=&quot;font-size: 14px&quot;&gt;volume | replica = 3&lt;/font&gt;&lt;/b&gt;" style="text;html=1;strokeColor=none;fillColor=none;align=center;verticalAlign=middle;whiteSpace=wrap;rounded=0;" parent="1" vertex="1">
          <mxGeometry x="170" y="142" width="150" height="20" as="geometry" />
        </mxCell>
        <mxCell id="lRcayT5BIOxvQGT9DbQC-3" value="" style="shape=cylinder3;whiteSpace=wrap;html=1;boundedLbl=1;backgroundOutline=1;size=15;strokeColor=#660033;strokeWidth=3;" parent="1" vertex="1">
          <mxGeometry x="210.00999999999996" y="70" width="70" height="70" as="geometry" />
        </mxCell>
        <mxCell id="lRcayT5BIOxvQGT9DbQC-48" value="" style="endArrow=classic;html=1;strokeWidth=2;" parent="1" edge="1">
          <mxGeometry width="50" height="50" relative="1" as="geometry">
            <mxPoint x="484.5" y="220" as="sourcePoint" />
            <mxPoint x="484.5" y="180" as="targetPoint" />
          </mxGeometry>
        </mxCell>
        <mxCell id="lRcayT5BIOxvQGT9DbQC-49" value="" style="endArrow=classic;html=1;strokeWidth=2;" parent="1" edge="1">
          <mxGeometry width="50" height="50" relative="1" as="geometry">
            <mxPoint x="14.5" y="220" as="sourcePoint" />
            <mxPoint x="14.5" y="180" as="targetPoint" />
          </mxGeometry>
        </mxCell>
        <mxCell id="lRcayT5BIOxvQGT9DbQC-50" value="" style="endArrow=classic;html=1;strokeWidth=2;" parent="1" edge="1">
          <mxGeometry width="50" height="50" relative="1" as="geometry">
            <mxPoint x="244.51" y="220" as="sourcePoint" />
            <mxPoint x="244.51" y="180" as="targetPoint" />
          </mxGeometry>
        </mxCell>
        <mxCell id="lRcayT5BIOxvQGT9DbQC-52" value="" style="pointerEvents=1;shadow=0;dashed=0;html=1;strokeColor=none;fillColor=#434445;aspect=fixed;labelPosition=center;verticalLabelPosition=bottom;verticalAlign=top;align=center;outlineConnect=0;shape=mxgraph.vvd.nsx;" parent="1" vertex="1">
          <mxGeometry x="-40" y="20" width="40.5" height="31.19" as="geometry" />
        </mxCell>
        <mxCell id="lRcayT5BIOxvQGT9DbQC-53" value="&lt;b&gt;&lt;font style=&quot;font-size: 14px&quot;&gt;plugin&lt;/font&gt;&lt;/b&gt;" style="text;html=1;strokeColor=none;fillColor=none;align=center;verticalAlign=middle;whiteSpace=wrap;rounded=0;" parent="1" vertex="1">
          <mxGeometry x="0.5" y="25.600000000000023" width="90" height="20" as="geometry" />
        </mxCell>
        <mxCell id="lRcayT5BIOxvQGT9DbQC-54" value="" style="pointerEvents=1;shadow=0;dashed=0;html=1;strokeColor=none;fillColor=#434445;aspect=fixed;labelPosition=center;verticalLabelPosition=bottom;verticalAlign=top;align=center;outlineConnect=0;shape=mxgraph.vvd.nsx;" parent="1" vertex="1">
          <mxGeometry x="189.5" y="20" width="40.5" height="31.19" as="geometry" />
        </mxCell>
        <mxCell id="lRcayT5BIOxvQGT9DbQC-55" value="&lt;b&gt;&lt;font style=&quot;font-size: 14px&quot;&gt;plugin&lt;/font&gt;&lt;/b&gt;" style="text;html=1;strokeColor=none;fillColor=none;align=center;verticalAlign=middle;whiteSpace=wrap;rounded=0;" parent="1" vertex="1">
          <mxGeometry x="230" y="25.600000000000023" width="90" height="20" as="geometry" />
        </mxCell>
        <mxCell id="lRcayT5BIOxvQGT9DbQC-56" value="" style="pointerEvents=1;shadow=0;dashed=0;html=1;strokeColor=none;fillColor=#434445;aspect=fixed;labelPosition=center;verticalLabelPosition=bottom;verticalAlign=top;align=center;outlineConnect=0;shape=mxgraph.vvd.nsx;" parent="1" vertex="1">
          <mxGeometry x="430" y="20" width="40.5" height="31.19" as="geometry" />
        </mxCell>
        <mxCell id="lRcayT5BIOxvQGT9DbQC-57" value="&lt;b&gt;&lt;font style=&quot;font-size: 14px&quot;&gt;plugin&lt;/font&gt;&lt;/b&gt;" style="text;html=1;strokeColor=none;fillColor=none;align=center;verticalAlign=middle;whiteSpace=wrap;rounded=0;" parent="1" vertex="1">
          <mxGeometry x="470.5" y="25.600000000000023" width="90" height="20" as="geometry" />
        </mxCell>
        <mxCell id="lRcayT5BIOxvQGT9DbQC-66" style="edgeStyle=orthogonalEdgeStyle;rounded=0;orthogonalLoop=1;jettySize=auto;html=1;strokeWidth=2;" parent="1" source="lRcayT5BIOxvQGT9DbQC-61" edge="1">
          <mxGeometry relative="1" as="geometry">
            <mxPoint x="680" y="90" as="targetPoint" />
          </mxGeometry>
        </mxCell>
        <mxCell id="lRcayT5BIOxvQGT9DbQC-61" value="" style="aspect=fixed;html=1;points=[];align=center;image;fontSize=12;image=img/lib/mscae/Kubernetes_Services.svg;strokeColor=#660033;strokeWidth=4;fillColor=none;" parent="1" vertex="1">
          <mxGeometry x="338.92" y="-210" width="81.08" height="60" as="geometry" />
        </mxCell>
        <mxCell id="lRcayT5BIOxvQGT9DbQC-62" value="&lt;b&gt;&lt;font style=&quot;font-size: 14px&quot;&gt;container&lt;/font&gt;&lt;/b&gt;" style="text;html=1;strokeColor=none;fillColor=none;align=center;verticalAlign=middle;whiteSpace=wrap;rounded=0;" parent="1" vertex="1">
          <mxGeometry x="405.25" y="-169.99999999999997" width="90" height="20" as="geometry" />
        </mxCell>
        <mxCell id="lRcayT5BIOxvQGT9DbQC-64" value="" style="pointerEvents=1;shadow=0;dashed=0;html=1;strokeColor=none;fillColor=#434445;aspect=fixed;labelPosition=center;verticalLabelPosition=bottom;verticalAlign=top;align=center;outlineConnect=0;shape=mxgraph.vvd.folder;" parent="1" vertex="1">
          <mxGeometry x="660" y="98.5" width="50" height="38" as="geometry" />
        </mxCell>
        <mxCell id="lRcayT5BIOxvQGT9DbQC-65" value="&lt;b&gt;&lt;font style=&quot;font-size: 14px&quot;&gt;/data&lt;/font&gt;&lt;/b&gt;" style="text;html=1;strokeColor=none;fillColor=none;align=center;verticalAlign=middle;whiteSpace=wrap;rounded=0;" parent="1" vertex="1">
          <mxGeometry x="640" y="142.00000000000003" width="90" height="20" as="geometry" />
        </mxCell>
        <mxCell id="1Ij9KaB-dNRLpgeOkzzd-1" value="&lt;h1 style=&quot;text-align: center&quot;&gt;&lt;span style=&quot;font-weight: normal&quot;&gt;team CS log task lên Jira&lt;/span&gt;&lt;br&gt;&lt;/h1&gt;" style="text;html=1;strokeColor=none;fillColor=none;spacing=5;spacingTop=-20;whiteSpace=wrap;overflow=hidden;rounded=0;" vertex="1" parent="1">
          <mxGeometry x="-310" y="1030" width="199.5" height="70" as="geometry" />
        </mxCell>
        <mxCell id="1Ij9KaB-dNRLpgeOkzzd-3" value="&lt;font style=&quot;font-size: 20px&quot;&gt;update tool(jenkins tool)&lt;/font&gt;" style="rounded=1;whiteSpace=wrap;html=1;strokeWidth=3;" vertex="1" parent="1">
          <mxGeometry x="83" y="1200" width="160.5" height="70" as="geometry" />
        </mxCell>
        <mxCell id="1Ij9KaB-dNRLpgeOkzzd-4" value="&lt;font style=&quot;font-size: 20px&quot;&gt;update tool(image)&lt;/font&gt;" style="rounded=1;whiteSpace=wrap;html=1;strokeWidth=3;" vertex="1" parent="1">
          <mxGeometry x="80" y="1070" width="160.5" height="70" as="geometry" />
        </mxCell>
        <mxCell id="1Ij9KaB-dNRLpgeOkzzd-5" value="&lt;span style=&quot;font-size: 20px&quot;&gt;Log task&lt;/span&gt;" style="rounded=1;whiteSpace=wrap;html=1;strokeWidth=3;" vertex="1" parent="1">
          <mxGeometry x="-291.5" y="1130" width="160.5" height="70" as="geometry" />
        </mxCell>
        <mxCell id="1Ij9KaB-dNRLpgeOkzzd-6" value="&lt;span style=&quot;font-size: 20px&quot;&gt;Nhận task&lt;/span&gt;" style="rounded=1;whiteSpace=wrap;html=1;strokeWidth=3;" vertex="1" parent="1">
          <mxGeometry x="-90.62" y="1130" width="160.5" height="70" as="geometry" />
        </mxCell>
        <mxCell id="1Ij9KaB-dNRLpgeOkzzd-7" value="&lt;h1 style=&quot;text-align: center&quot;&gt;&lt;span style=&quot;font-weight: normal&quot;&gt;team Tech nhận task&lt;/span&gt;&lt;br&gt;&lt;/h1&gt;" style="text;html=1;strokeColor=none;fillColor=none;spacing=5;spacingTop=-20;whiteSpace=wrap;overflow=hidden;rounded=0;" vertex="1" parent="1">
          <mxGeometry x="-95.43" y="1035" width="170.12" height="60" as="geometry" />
        </mxCell>
        <mxCell id="1Ij9KaB-dNRLpgeOkzzd-8" value="&lt;span style=&quot;font-size: 20px&quot;&gt;Dowload tool&lt;/span&gt;" style="rounded=1;whiteSpace=wrap;html=1;strokeWidth=3;" vertex="1" parent="1">
          <mxGeometry x="424.97" y="1190" width="160.5" height="70" as="geometry" />
        </mxCell>
        <mxCell id="1Ij9KaB-dNRLpgeOkzzd-10" value="&lt;h1 style=&quot;text-align: center&quot;&gt;&lt;span style=&quot;font-weight: normal&quot;&gt;áp dụng cho các tool phải tải qua repo&lt;/span&gt;&lt;br&gt;&lt;/h1&gt;" style="text;html=1;strokeColor=none;fillColor=none;spacing=5;spacingTop=-20;whiteSpace=wrap;overflow=hidden;rounded=0;" vertex="1" parent="1">
          <mxGeometry x="75.19" y="960" width="170.12" height="100" as="geometry" />
        </mxCell>
        <mxCell id="1Ij9KaB-dNRLpgeOkzzd-11" value="&lt;h1 style=&quot;text-align: center&quot;&gt;&lt;span style=&quot;font-weight: normal&quot;&gt;áp dụng cho các tool có ở global tool&lt;/span&gt;&lt;br&gt;&lt;/h1&gt;" style="text;html=1;strokeColor=none;fillColor=none;spacing=5;spacingTop=-20;whiteSpace=wrap;overflow=hidden;rounded=0;" vertex="1" parent="1">
          <mxGeometry x="74.69" y="1270" width="170.12" height="110" as="geometry" />
        </mxCell>
        <mxCell id="1Ij9KaB-dNRLpgeOkzzd-12" value="&lt;h1 style=&quot;text-align: center&quot;&gt;&lt;span style=&quot;font-weight: normal&quot;&gt;chỉnh lại file, áp dụng cho Cov&lt;/span&gt;&lt;br&gt;&lt;/h1&gt;" style="text;html=1;strokeColor=none;fillColor=none;spacing=5;spacingTop=-20;whiteSpace=wrap;overflow=hidden;rounded=0;" vertex="1" parent="1">
          <mxGeometry x="420.5" y="1260" width="170.12" height="110" as="geometry" />
        </mxCell>
        <mxCell id="1Ij9KaB-dNRLpgeOkzzd-13" value="&lt;span style=&quot;font-size: 20px&quot;&gt;Upload lên Nexus&lt;/span&gt;" style="rounded=1;whiteSpace=wrap;html=1;strokeWidth=3;" vertex="1" parent="1">
          <mxGeometry x="620.49" y="1190" width="160.5" height="70" as="geometry" />
        </mxCell>
        <mxCell id="1Ij9KaB-dNRLpgeOkzzd-14" value="&lt;h1 style=&quot;text-align: center&quot;&gt;&lt;span style=&quot;font-weight: normal&quot;&gt;cập nhật tool lên jenkins&lt;/span&gt;&lt;/h1&gt;" style="text;html=1;strokeColor=none;fillColor=none;spacing=5;spacingTop=-20;whiteSpace=wrap;overflow=hidden;rounded=0;" vertex="1" parent="1">
          <mxGeometry x="810.49" y="1260" width="170.12" height="70" as="geometry" />
        </mxCell>
        <mxCell id="1Ij9KaB-dNRLpgeOkzzd-15" value="&lt;span style=&quot;font-size: 20px&quot;&gt;Upload lên Nexus&lt;/span&gt;" style="rounded=1;whiteSpace=wrap;html=1;strokeWidth=3;" vertex="1" parent="1">
          <mxGeometry x="810.49" y="1190" width="160.5" height="70" as="geometry" />
        </mxCell>
        <mxCell id="1Ij9KaB-dNRLpgeOkzzd-16" value="&lt;span style=&quot;font-size: 20px&quot;&gt;update dockerfile&lt;/span&gt;" style="rounded=1;whiteSpace=wrap;html=1;strokeWidth=3;" vertex="1" parent="1">
          <mxGeometry x="420.5" y="1060" width="160.5" height="70" as="geometry" />
        </mxCell>
        <mxCell id="1Ij9KaB-dNRLpgeOkzzd-17" value="&lt;span style=&quot;font-size: 20px&quot;&gt;update test case&lt;/span&gt;" style="rounded=1;whiteSpace=wrap;html=1;strokeWidth=3;" vertex="1" parent="1">
          <mxGeometry x="616.02" y="1060" width="160.5" height="70" as="geometry" />
        </mxCell>
        <mxCell id="1Ij9KaB-dNRLpgeOkzzd-18" value="&lt;span style=&quot;font-size: 20px&quot;&gt;jenkins build&lt;/span&gt;" style="rounded=1;whiteSpace=wrap;html=1;strokeWidth=3;" vertex="1" parent="1">
          <mxGeometry x="806.02" y="1060" width="160.5" height="70" as="geometry" />
        </mxCell>
        <mxCell id="1Ij9KaB-dNRLpgeOkzzd-19" value="&lt;h1 style=&quot;text-align: center&quot;&gt;&lt;span style=&quot;font-weight: normal&quot;&gt;update test case trong jenkinsfile, đảm bảo image lunch được&lt;/span&gt;&lt;br&gt;&lt;/h1&gt;" style="text;html=1;strokeColor=none;fillColor=none;spacing=5;spacingTop=-20;whiteSpace=wrap;overflow=hidden;rounded=0;" vertex="1" parent="1">
          <mxGeometry x="560.49" y="960" width="269.5" height="110" as="geometry" />
        </mxCell>
        <mxCell id="1Ij9KaB-dNRLpgeOkzzd-20" value="&lt;h1 style=&quot;text-align: center&quot;&gt;&lt;span style=&quot;font-weight: normal&quot;&gt;kích build&amp;nbsp;&lt;/span&gt;&lt;/h1&gt;" style="text;html=1;strokeColor=none;fillColor=none;spacing=5;spacingTop=-20;whiteSpace=wrap;overflow=hidden;rounded=0;" vertex="1" parent="1">
          <mxGeometry x="835.8000000000001" y="1000" width="144.81" height="45" as="geometry" />
        </mxCell>
        <mxCell id="1Ij9KaB-dNRLpgeOkzzd-21" value="&lt;h1 style=&quot;text-align: center&quot;&gt;&lt;span style=&quot;font-weight: normal&quot;&gt;cập nhật tool lên jenkins&lt;/span&gt;&lt;/h1&gt;" style="text;html=1;strokeColor=none;fillColor=none;spacing=5;spacingTop=-20;whiteSpace=wrap;overflow=hidden;rounded=0;" vertex="1" parent="1">
          <mxGeometry x="410" y="987.5" width="170.12" height="70" as="geometry" />
        </mxCell>
        <mxCell id="1Ij9KaB-dNRLpgeOkzzd-22" value="&lt;span style=&quot;font-size: 20px&quot;&gt;update repo Nexus&lt;/span&gt;" style="rounded=1;whiteSpace=wrap;html=1;strokeWidth=3;" vertex="1" parent="1">
          <mxGeometry x="249.5" y="1130" width="160.5" height="70" as="geometry" />
        </mxCell>
        <mxCell id="1Ij9KaB-dNRLpgeOkzzd-23" value="&lt;h1 style=&quot;text-align: center&quot;&gt;&lt;span style=&quot;font-weight: normal&quot;&gt;request anh tùng&lt;/span&gt;&lt;br&gt;&lt;/h1&gt;" style="text;html=1;strokeColor=none;fillColor=none;spacing=5;spacingTop=-20;whiteSpace=wrap;overflow=hidden;rounded=0;" vertex="1" parent="1">
          <mxGeometry x="245.31" y="1210" width="170.12" height="70" as="geometry" />
        </mxCell>
        <mxCell id="1Ij9KaB-dNRLpgeOkzzd-24" value="&lt;h1 style=&quot;text-align: center&quot;&gt;&lt;span style=&quot;font-weight: normal&quot;&gt;những tool ko có trong repo&lt;/span&gt;&lt;br&gt;&lt;/h1&gt;" style="text;html=1;strokeColor=none;fillColor=none;spacing=5;spacingTop=-20;whiteSpace=wrap;overflow=hidden;rounded=0;" vertex="1" parent="1">
          <mxGeometry x="244.81" y="1045" width="170.12" height="70" as="geometry" />
        </mxCell>
      </root>
    </mxGraphModel>
  </diagram>
</mxfile>
